# xmcd
#
# Track frame offsets: 
#        150
#        15376
#        33164
#        45028
#        61431
#        76270
#        91901
#        107380
#        121207
#        133622
#
# Disc length: 1947 seconds
#
# Revision: 0
# Processed by: cddbd v1.5.2PL0 Copyright (c) Steve Scherf et al.
# Submitted via: ExactAudioCopyFreeDBPlugin 1.0
#
DISCID=6507990a
DTITLE=Mel Tillis - It's A Long Way To Daytona
DYEAR=1982
DGENRE=Country
TTITLE0=Dream Of Me
TTITLE1=The One That Got Away
TTITLE2=It's Gonna Be One Of Them Days
TTITLE3=She's Been Doin' That For Years
TTITLE4=It's A Long Way To Daytona
TTITLE5=Always You, Always Me
TTITLE6=Wrong Again
TTITLE7=You're The Only Song I Sing Today
TTITLE8=Why Ain't Life The Way It's S'Posed To Be
TTITLE9=My Woman's Honky Tonkin' Me To Death
EXTD=
EXTT0=
EXTT1=
EXTT2=
EXTT3=
EXTT4=
EXTT5=
EXTT6=
EXTT7=
EXTT8=
EXTT9=
PLAYORDER=
